<svg width="24" height="15" viewBox="0 0 24 15" fill="none" xmlns="http://www.w3.org/2000/svg">
<path d="M0.889893 10.5999C0.889893 9.60994 1.19989 8.71994 1.81989 7.94994C2.43989 7.17994 3.22989 6.67994 4.19989 6.45994C4.45989 5.28994 5.04989 4.31994 5.97989 3.57994C6.90989 2.82994 7.97989 2.45994 9.19989 2.45994C10.3799 2.45994 11.4399 2.81994 12.3599 3.54994C13.2899 4.27994 13.8899 5.20994 14.1599 6.34994H14.4299C15.6099 6.34994 16.6099 6.75994 17.4399 7.58994C18.2699 8.41994 18.6899 9.41994 18.6899 10.5899C18.6899 11.7699 18.2699 12.7699 17.4399 13.5999C16.6099 14.4299 15.6099 14.8499 14.4299 14.8499H5.15989C4.57989 14.8499 4.02989 14.7399 3.50989 14.5099C2.98989 14.2799 2.51989 13.9999 2.13989 13.6199C1.75989 13.2399 1.45989 12.7799 1.22989 12.2599C0.999892 11.7399 0.889893 11.1699 0.889893 10.5999ZM2.33989 10.5999C2.33989 11.3599 2.61989 12.0199 3.15989 12.5599C3.69989 13.0999 4.36989 13.3799 5.14989 13.3799H14.4299C15.1999 13.3799 15.8699 13.1099 16.4199 12.5599C16.9699 12.0099 17.2499 11.3599 17.2499 10.5999C17.2499 9.83994 16.9799 9.17994 16.4199 8.63994C15.8699 8.09994 15.2099 7.81994 14.4299 7.81994H13.0399C12.9399 7.81994 12.8899 7.76994 12.8899 7.66994L12.8199 7.17994C12.7199 6.23994 12.3199 5.44994 11.6299 4.82994C10.9399 4.20994 10.1199 3.89994 9.17989 3.89994C8.23989 3.89994 7.41989 4.20994 6.71989 4.83994C6.01989 5.45994 5.62989 6.24994 5.53989 7.17994L5.46989 7.59994C5.46989 7.69994 5.41989 7.74994 5.30989 7.74994L4.85989 7.81994C4.13989 7.87994 3.53989 8.17994 3.04989 8.70994C2.58989 9.23994 2.33989 9.86994 2.33989 10.5999ZM11.1899 1.87994C11.0899 1.96994 11.1099 2.03994 11.2599 2.08994C11.6899 2.27994 12.0499 2.45994 12.3399 2.63994C12.4499 2.66994 12.5299 2.65994 12.5599 2.60994C13.1699 2.03994 13.8699 1.74994 14.6799 1.74994C15.4899 1.74994 16.1799 2.01994 16.7799 2.55994C17.3699 3.09994 17.6999 3.76994 17.7699 4.55994L17.8599 5.19994H19.2799C19.9299 5.19994 20.4899 5.42994 20.9599 5.89994C21.4299 6.36994 21.6599 6.91994 21.6599 7.55994C21.6599 8.15994 21.4499 8.67994 21.0399 9.12994C20.6299 9.57994 20.1199 9.82994 19.5099 9.89994C19.4099 9.89994 19.3599 9.94994 19.3599 10.0599V11.1899C19.3599 11.2999 19.4099 11.3499 19.5099 11.3499C20.5199 11.2899 21.3699 10.8899 22.0599 10.1599C22.7499 9.42994 23.0999 8.55994 23.0999 7.55994C23.0999 6.49994 22.7299 5.59994 21.9799 4.85994C21.2299 4.10994 20.3299 3.73994 19.2799 3.73994H19.1299C18.8699 2.73994 18.3199 1.91994 17.4799 1.26994C16.6499 0.619944 15.7099 0.299944 14.6799 0.299944C13.2799 0.289944 12.1099 0.819944 11.1899 1.87994Z" fill="white"/>
</svg>
