<svg width="21" height="21" viewBox="0 0 21 21" fill="none" xmlns="http://www.w3.org/2000/svg">
<path d="M0 9.52C0 8.36 0.36 7.33 1.08 6.43C1.8 5.53 2.72 4.94 3.82 4.69C4.13 3.32 4.83 2.2 5.92 1.32C7.01 0.44 8.27 0 9.69 0C10.5 0 11.24 0.13 11.89 0.4C11.89 0.41 11.89 0.41 11.9 0.42C12.74 0.74 13.48 1.26 14.11 1.97H14.14C14.82 2.7 15.27 3.57 15.51 4.59H15.82C16.9 4.59 17.84 4.88 18.65 5.45V5.44C19.18 5.8 19.63 6.24 19.99 6.77C20.35 7.3 20.59 7.88 20.72 8.51C20.76 8.72 20.78 8.89 20.8 9.03V9.09C20.8 9.1 20.8 9.15 20.81 9.26C20.82 9.37 20.82 9.45 20.82 9.5V9.53C20.82 10.41 20.61 11.23 20.18 11.98C19.76 12.73 19.18 13.34 18.44 13.79C17.71 14.24 16.9 14.48 16.02 14.51C15.89 14.51 15.82 14.45 15.82 14.34V13C15.82 12.87 15.89 12.81 16.02 12.81C16.88 12.77 17.6 12.43 18.2 11.79C18.8 11.15 19.1 10.4 19.1 9.53C19.1 8.64 18.78 7.88 18.13 7.24C17.49 6.6 16.72 6.28 15.82 6.28H14.21C14.09 6.28 14.03 6.22 14.03 6.11L13.95 5.52C13.85 4.52 13.43 3.66 12.68 2.93C12.67 2.92 12.67 2.91 12.66 2.9C12.65 2.89 12.64 2.88 12.64 2.87C12.63 2.86 12.62 2.85 12.6 2.85C12.6 2.83 12.59 2.82 12.58 2.82C11.85 2.16 11 1.78 10.02 1.7C9.95 1.69 9.84 1.69 9.68 1.69C8.58 1.69 7.63 2.06 6.82 2.79C6.01 3.52 5.55 4.43 5.45 5.51L5.37 6.1C5.34 6.19 5.26 6.24 5.15 6.24L4.66 6.27C3.82 6.37 3.11 6.73 2.55 7.34C1.99 7.95 1.71 8.68 1.71 9.52V9.56H1.74C1.75 10.04 1.85 10.49 2.04 10.91C2.24 11.34 2.5 11.7 2.84 12C3.05 12.18 3.29 12.34 3.58 12.48V12.49C3.98 12.68 4.38 12.79 4.79 12.81C4.9 12.81 4.96 12.87 4.96 12.99V14.33C4.96 14.44 4.9 14.5 4.79 14.5C4.27 14.47 3.78 14.37 3.31 14.2V14.21C2.48 13.92 1.77 13.44 1.2 12.78C0.63 12.12 0.25 11.34 0.0899997 10.47V10.44C0.0799997 10.43 0.0799999 10.42 0.0799999 10.4C0.0199999 10.14 0 9.84 0 9.52ZM5.5 16.69C5.5 16.66 5.51 16.62 5.52 16.56C5.53 16.51 5.54 16.47 5.54 16.44L5.63 15.85C5.7 15.61 5.83 15.44 6.04 15.32C6.25 15.2 6.47 15.18 6.72 15.24C6.95 15.31 7.11 15.45 7.23 15.65C7.34 15.86 7.36 16.07 7.3 16.28L7.16 16.88C7.06 17.32 6.81 17.54 6.4 17.54C6.37 17.54 6.32 17.53 6.26 17.52C6.2 17.51 6.16 17.5 6.12 17.5C5.91 17.44 5.76 17.33 5.66 17.17C5.55 17.02 5.5 16.86 5.5 16.69ZM6.24 13.75C6.24 13.51 6.32 13.32 6.47 13.16C6.62 13 6.82 12.93 7.06 12.93C7.3 12.93 7.49 13.01 7.65 13.16C7.81 13.31 7.88 13.51 7.88 13.75C7.88 13.98 7.8 14.17 7.65 14.33C7.5 14.49 7.3 14.56 7.06 14.56C6.83 14.56 6.64 14.48 6.49 14.32C6.33 14.16 6.24 13.97 6.24 13.75ZM7.88 19.74C7.88 19.7 7.89 19.63 7.92 19.51L8.05 18.92C8.12 18.69 8.26 18.52 8.46 18.41C8.67 18.29 8.88 18.27 9.09 18.34C9.32 18.38 9.5 18.51 9.62 18.71C9.74 18.91 9.77 19.14 9.7 19.39L9.57 19.98C9.47 20.39 9.2 20.59 8.77 20.59C8.7 20.59 8.61 20.58 8.53 20.56C8.31 20.5 8.15 20.39 8.04 20.23C7.94 20.07 7.88 19.91 7.88 19.74ZM8.67 16.83C8.67 16.6 8.75 16.4 8.9 16.25C9.06 16.09 9.25 16.02 9.49 16.02C9.73 16.02 9.92 16.1 10.08 16.25C10.24 16.41 10.31 16.6 10.31 16.83C10.31 17.07 10.23 17.26 10.08 17.42C9.92 17.58 9.73 17.65 9.49 17.65C9.26 17.65 9.07 17.57 8.91 17.41C8.75 17.25 8.67 17.06 8.67 16.83ZM9.29 14.56C9.29 14.46 9.3 14.37 9.32 14.29L9.55 13.39C9.62 13.16 9.76 12.98 9.96 12.86C10.17 12.74 10.38 12.71 10.6 12.78C10.84 12.85 11.01 12.98 11.13 13.18C11.25 13.38 11.27 13.59 11.2 13.81L10.94 14.71C10.86 14.99 10.72 15.17 10.53 15.27C10.34 15.37 10.12 15.39 9.89 15.33C9.69 15.29 9.54 15.19 9.44 15.03C9.32 14.87 9.28 14.71 9.29 14.56ZM12.05 16.7C12.05 16.67 12.05 16.62 12.06 16.57C12.07 16.52 12.07 16.48 12.07 16.46L12.16 15.87C12.23 15.63 12.36 15.46 12.57 15.34C12.78 15.22 13 15.2 13.25 15.26C13.48 15.33 13.65 15.47 13.76 15.67C13.88 15.88 13.9 16.09 13.83 16.3L13.69 16.9C13.59 17.34 13.34 17.56 12.93 17.56C12.9 17.56 12.85 17.55 12.79 17.54C12.73 17.53 12.68 17.52 12.65 17.52C12.45 17.46 12.3 17.35 12.2 17.19C12.11 17.03 12.05 16.87 12.05 16.7ZM12.79 13.76C12.79 13.52 12.87 13.33 13.02 13.17C13.18 13.01 13.37 12.94 13.61 12.94C13.85 12.94 14.04 13.02 14.2 13.17C14.36 13.33 14.43 13.52 14.43 13.76C14.43 13.99 14.35 14.19 14.2 14.34C14.05 14.49 13.86 14.57 13.62 14.57C13.38 14.57 13.19 14.49 13.04 14.33C12.88 14.18 12.79 13.99 12.79 13.76Z" fill="white"/>
</svg>
