<svg width="22" height="9" viewBox="0 0 22 9" fill="none" xmlns="http://www.w3.org/2000/svg">
<path d="M0.649902 4.49995C0.649902 4.27995 0.729902 4.08995 0.879902 3.93995C1.0399 3.78995 1.2299 3.71995 1.4499 3.71995H13.5299C13.7499 3.71995 13.9299 3.78995 14.0699 3.93995C14.2099 4.08995 14.2899 4.27995 14.2899 4.50995C14.2899 4.72995 14.2199 4.90995 14.0699 5.04995C13.9299 5.18995 13.7499 5.26995 13.5299 5.26995H1.4499C1.2299 5.26995 1.0299 5.19995 0.879902 5.04995C0.719902 4.89995 0.649902 4.71995 0.649902 4.49995ZM3.0599 1.59995C3.0599 1.37995 3.1399 1.19995 3.2899 1.04995C3.4399 0.899947 3.6299 0.819946 3.8499 0.819946H15.9399C16.1499 0.819946 16.3299 0.899947 16.4799 1.04995C16.6299 1.19995 16.6999 1.37995 16.6999 1.59995C16.6999 1.81995 16.6299 1.99995 16.4799 2.15995C16.3299 2.30995 16.1499 2.38995 15.9399 2.38995H3.8599C3.6399 2.38995 3.4499 2.30995 3.2999 2.15995C3.1499 2.00995 3.0599 1.81995 3.0599 1.59995ZM4.6799 7.33995C4.6799 7.12995 4.7599 6.94995 4.9199 6.79995C5.0599 6.65995 5.2399 6.57995 5.4599 6.57995H17.5599C17.7799 6.57995 17.9699 6.64995 18.1199 6.79995C18.2699 6.93995 18.3399 7.11995 18.3399 7.33995C18.3399 7.55995 18.2599 7.74995 18.1099 7.89995C17.9599 8.04995 17.7699 8.12995 17.5499 8.12995H5.4599C5.2399 8.12995 5.0599 8.04995 4.8999 7.89995C4.7399 7.74995 4.6799 7.55995 4.6799 7.33995ZM15.2599 4.49995C15.2599 4.26995 15.3299 4.07995 15.4799 3.92995C15.6299 3.77995 15.8199 3.70995 16.0499 3.70995H20.5699C20.7999 3.70995 20.9899 3.77995 21.1399 3.92995C21.2899 4.07995 21.3599 4.26995 21.3599 4.48995C21.3599 4.70995 21.2899 4.88995 21.1399 5.02995C20.9899 5.16995 20.7999 5.24995 20.5799 5.24995H16.0599C15.8299 5.24995 15.6399 5.17995 15.4899 5.02995C15.3299 4.89995 15.2599 4.71995 15.2599 4.49995Z" fill="white"/>
</svg>
